<?xml version="1.0" standalone="no"?><!DOCTYPE svg PUBLIC "-//W3C//DTD SVG 1.1//EN" "http://www.w3.org/Graphics/SVG/1.1/DTD/svg11.dtd"><svg t="1667811405307" class="icon" viewBox="0 0 1024 1024" version="1.1" xmlns="http://www.w3.org/2000/svg" p-id="1838" xmlns:xlink="http://www.w3.org/1999/xlink" width="200" height="200"><path d="M775.7312 910.336c238.9504-112.9472 116.0704-477.2864 116.0704-477.2864s108.544-301.3632 24.32-344.4224-248.9344 160.9728-248.9344 160.9728c-173.4656-61.7472-309.4528 0-309.4528 0S192.9728 45.6192 108.7488 88.6272s24.32 344.4224 24.32 344.4224S-3.584 777.472 249.1392 910.336c0 0 242.176 119.1936 526.592 0z" fill="#e6e6e6" p-id="1839" data-spm-anchor-id="a313x.7781069.0.i2" class="selected"></path><path d="M775.7312 910.336c99.5328-47.0528 136.2432-137.6768 145.2544-227.4816-18.8416 91.2384-83.5072 141.9776-97.024 156.2624-13.5168 14.2848-138.7008 87.552-311.0912 87.552-172.3392 0-258.1504-53.1968-306.432-89.5488-48.0768-36.1984-107.1104-153.344-107.5712-154.3168 9.7792 85.9136 48.3328 173.8752 150.2208 227.4816 0.0512 0.0512 242.2272 119.2448 526.6432 0.0512z" fill="#3A3E42" p-id="1840"></path><path d="M190.5664 401.7152c-7.424 2.4576-15.4624-1.2288-18.3808-8.4992-19.2-47.5648-85.1456-220.7744-46.7968-267.3664 44.5952-54.2208 161.4336 108.4416 168.704 139.776s10.8544 54.2208-14.4384 75.9296c-22.784 19.456-50.5856 47.4112-89.088 60.16zM835.84 403.4048c7.424 2.4576 15.4624-1.2288 18.3808-8.4992 19.2-47.5648 85.1456-220.7232 46.7968-267.3664-44.5952-54.2208-161.4336 108.4416-168.704 139.776s-10.8544 54.2208 14.4384 75.9296c22.8352 19.5072 50.5856 47.4624 89.088 60.16z" fill="#93949D" p-id="1841"></path><path d="M305.652723 643.756764a104.3456 79.5648 8.303 1 0 22.979589-157.46164 104.3456 79.5648 8.303 1 0-22.979589 157.46164Z" fill="#CFCD8A" p-id="1842"></path><path d="M317.184 565.0432m-57.6 0a57.6 57.6 0 1 0 115.2 0 57.6 57.6 0 1 0-115.2 0Z" fill="#271C16" p-id="1843"></path><path d="M344.1152 557.056m-22.016 0a22.016 22.016 0 1 0 44.032 0 22.016 22.016 0 1 0-44.032 0Z" fill="#FEFDFE" p-id="1844"></path><path d="M603.752471 580.118045a79.5648 104.3456 81.69 1 0 206.500063-30.16191 79.5648 104.3456 81.69 1 0-206.500063 30.16191Z" fill="#CFCD8A" p-id="1845"></path><path d="M707.0208 565.0432m-57.6 0a57.6 57.6 0 1 0 115.2 0 57.6 57.6 0 1 0-115.2 0Z" fill="#271C16" p-id="1846"></path><path d="M680.0896 557.056m-22.016 0a22.016 22.016 0 1 0 44.032 0 22.016 22.016 0 1 0-44.032 0Z" fill="#FEFDFE" p-id="1847"></path><path d="M718.7968 779.9296c-4.9664-37.4272-18.7392-92.3648-107.3152-129.792-16.2304-7.4752-44.9024-21.1968-36.1984-64.8704s18.7392-57.3952-7.4752-91.0848c-26.2144-33.6896-36.5056-61.184-37.4272-77.3632-0.256-4.5056-5.12-14.4896-19.6608-14.4896-14.4896 0-16.384 14.4896-16.384 14.4896 0 16.2304-11.2128 43.6736-37.4272 77.3632-26.2144 33.6896-16.2304 47.4112-7.4752 91.0848s-19.968 57.3952-36.1984 64.8704c-88.576 37.4272-102.2976 92.3648-107.3152 129.792-3.328 24.8832-83.3024 53.0944-136.5504 69.1712 20.8384 23.1424 47.0016 43.9808 79.7696 61.184 0 0 242.176 119.1936 526.592 0 33.6384-15.872 60.0576-36.7616 80.6912-60.8768-53.1968-15.9744-134.2976-44.3904-137.6256-69.4784z" fill="#e6e6e6" p-id="1848" data-spm-anchor-id="a313x.7781069.0.i1" class="selected"></path><path d="M789.8624 903.1168c2.6624-1.4848 5.3248-2.9696 7.8848-4.5056 0.9728-0.5632 1.8944-1.1264 2.8672-1.6896 3.328-2.048 6.656-4.1472 9.8304-6.2976 0.3584-0.256 0.6656-0.512 1.024-0.7168 2.816-1.9456 5.5808-3.9424 8.2944-5.9904 0.9216-0.6656 1.792-1.3824 2.7136-2.0992 2.2528-1.7408 4.4544-3.5328 6.6048-5.3248 0.768-0.6656 1.536-1.28 2.304-1.9456a373.248 373.248 0 0 0 8.1408-7.2704l1.536-1.536c2.0992-2.048 4.1984-4.096 6.1952-6.1952 0.8192-0.8704 1.6384-1.6896 2.4064-2.56 1.792-1.9456 3.584-3.8912 5.3248-5.888 0.4608-0.5632 0.9728-1.0752 1.4336-1.6384-10.0352-3.0208-21.0944-6.5024-32.4096-10.2912-13.5168 14.2848-138.7008 87.552-311.0912 87.552-172.3392 0-258.1504-53.1968-306.3808-89.5488-12.9536 4.4544-25.6512 8.4992-37.1712 11.9808 7.7312 8.5504 16.1792 16.8448 25.4464 24.6784 0.2048 0.1536 0.4096 0.3584 0.6144 0.512 6.144 5.1712 12.5952 10.1888 19.456 15.0016 0.256 0.1536 0.512 0.3072 0.7168 0.512 2.9184 2.048 5.9392 4.096 9.0112 6.0928 0.9216 0.6144 1.8432 1.1776 2.816 1.792 2.56 1.6384 5.1712 3.2256 7.8336 4.7616 0.9728 0.6144 1.9968 1.1776 2.9696 1.792 3.584 2.048 7.2192 4.096 10.9568 6.0416 0 0 242.176 119.1936 526.592 0 3.7888-1.792 7.424-3.6352 11.0592-5.5808 0.9728-0.512 1.9968-1.0752 3.0208-1.6384z" fill="#D6D6D4" p-id="1849"></path><path d="M366.1312 870.0928c16.8448 8.448 38.3488 12.6464 54.272 28.5696 15.9232 15.9232 36.9664 28.0576 86.5792 28.0576s78.1312-9.8304 93.1328-20.1216c14.9504-10.2912 20.5824-20.5824 62.72-32.768 42.1376-12.1856 58.9824-57.088 55.9616-93.9008-10.4448 47.4112-35.3792 68.608-67.2256 75.1616-31.7952 6.5536-58.9824 22.4768-67.3792 29.952-8.448 7.4752-30.8736 14.9504-71.7312 14.9504s-60.2112-9.3696-68.608-15.9232c-8.448-6.5536-22.4768-22.4768-54.016-28.0576-74.6496-16.8448-83.8656-76.1344-83.8656-76.1344s-6.7584 56.5248 60.16 90.2144z" fill="#D6D6D4" p-id="1850"></path><path d="M427.4176 855.808s79.4624-18.176 92.8768-67.9936c15.3088 45.9776 93.8496 67.9936 93.8496 67.9936-45.0048-8.6016-114.8928-18.176-186.7264 0z" fill="#484C51" p-id="1851"></path><path d="M525.056 799.232c-2.7648 2.1504-6.6048 2.0992-9.4208 0.1024-8.2432-5.8368-25.7024-16.64-46.1824-20.3264-28.5696-5.12-18.8416-43.2128 51.0976-43.2128s72.2944 37.1712 49.2544 42.6496c-18.6368 4.4544-36.3008 14.336-44.7488 20.7872z" fill="#F99393" p-id="1852"></path><path d="M513.792 973.1584c-157.5424 0-267.52-52.7872-269.1584-53.6064-107.264-56.4224-161.9456-159.3856-158.5152-297.9328 2.304-92.672 29.44-170.9056 36.0448-188.672-15.9232-45.0048-105.0112-308.992-18.0736-353.4336 83.456-42.6496 224.9728 119.4496 256.7168 157.7472 30.6176-11.8784 151.552-51.1488 302.9504 0.3584 31.1808-37.632 173.2608-200.8576 256.9728-158.0544 87.0912 44.544-2.5088 309.504-18.176 353.6896 5.6832 17.8176 30.208 100.608 31.0272 196.0448 1.1776 141.9264-51.9168 242.3296-153.4976 290.3552a1.536 1.536 0 0 0-0.4096 0.2048c-95.488 39.936-186.6752 53.2992-265.8816 53.2992zM135.0144 92.8768c-7.8336 0-15.0528 1.536-21.6064 4.864-62.464 31.9488-0.0512 250.368 29.2864 331.8272 0.8704 2.3552 0.8192 4.9152-0.1024 7.2704-0.3584 0.8704-33.6384 86.016-36.0448 185.8048-3.1744 131.7888 46.4384 225.536 147.3024 278.6304 2.1504 1.024 241.2032 115.4048 517.632-0.3072 227.7888-107.9296 111.7184-461.1072 110.4896-464.64-0.7168-2.2016-0.7168-4.5568 0.0512-6.7584 29.3376-81.4592 91.8016-299.8784 29.2864-331.8272-62.9248-32.2048-191.9488 103.3216-236.3392 158.3104-2.7136 3.3792-7.2704 4.6592-11.4176 3.2256-167.2192-59.5456-300.4928-0.9216-301.824-0.3072-4.2496 1.8944-9.2672 0.7168-12.1856-2.9184-39.5776-49.2032-147.2512-163.1744-214.528-163.1744zM775.7312 910.336z" fill="#00000E" p-id="1853"></path></svg>